<?xml version="1.0" standalone="no"?><!DOCTYPE svg PUBLIC "-//W3C//DTD SVG 1.1//EN" "http://www.w3.org/Graphics/SVG/1.1/DTD/svg11.dtd"><svg t="1558503079761" class="icon" style="" viewBox="0 0 1024 1024" version="1.1" xmlns="http://www.w3.org/2000/svg" p-id="5114" xmlns:xlink="http://www.w3.org/1999/xlink" width="128" height="128"><defs><style type="text/css"></style></defs><path d="M851.381248 755.44576q0 22.85568-15.998976 38.854656l-77.709312 77.709312q-15.998976 15.998976-38.854656 15.998976t-38.854656-15.998976l-167.989248-167.989248-167.989248 167.989248q-15.998976 15.998976-38.854656 15.998976t-38.854656-15.998976l-77.709312-77.709312q-15.998976-15.998976-15.998976-38.854656t15.998976-38.854656l167.989248-167.989248-167.989248-167.989248q-15.998976-15.998976-15.998976-38.854656t15.998976-38.854656l77.709312-77.709312q15.998976-15.998976 38.854656-15.998976t38.854656 15.998976l167.989248 167.989248 167.989248-167.989248q15.998976-15.998976 38.854656-15.998976t38.854656 15.998976l77.709312 77.709312q15.998976 15.998976 15.998976 38.854656t-15.998976 38.854656l-167.989248 167.989248 167.989248 167.989248q15.998976 15.998976 15.998976 38.854656z" p-id="5115"></path></svg>